<?xml version="1.0" encoding="UTF-8" standalone="no"?>
<svg
   xmlns:dc="http://purl.org/dc/elements/1.1/"
   xmlns:cc="http://creativecommons.org/ns#"
   xmlns:rdf="http://www.w3.org/1999/02/22-rdf-syntax-ns#"
   xmlns:svg="http://www.w3.org/2000/svg"
   xmlns="http://www.w3.org/2000/svg"
   xmlns:sodipodi="http://sodipodi.sourceforge.net/DTD/sodipodi-0.dtd"
   xmlns:inkscape="http://www.inkscape.org/namespaces/inkscape"
   inkscape:version="1.0 (4035a4fb49, 2020-05-01)"
   sodipodi:docname="account.svg"
   id="svg3388"
   version="1.1"
   viewBox="0 0 82.093821 22.672894"
   height="22.672894mm"
   width="82.093819mm">
  <sodipodi:namedview
     inkscape:current-layer="layer1"
     inkscape:window-maximized="0"
     inkscape:window-y="0"
     inkscape:window-x="0"
     inkscape:cy="129.22846"
     inkscape:cx="191.59057"
     inkscape:zoom="3.0598879"
     showgrid="false"
     id="namedview39"
     inkscape:window-height="1768"
     inkscape:window-width="2581"
     inkscape:pageshadow="2"
     inkscape:pageopacity="0"
     guidetolerance="10"
     gridtolerance="10"
     objecttolerance="10"
     borderopacity="1"
     bordercolor="#666666"
     pagecolor="#2f2f2f" />
  <defs
     id="defs3382">
    <rect
       id="rect891-7"
       height="22.385443"
       width="96.650658"
       y="50.66975"
       x="30.85561" />
    <rect
       id="rect3960"
       height="22.385443"
       width="96.650658"
       y="50.66975"
       x="30.85561" />
    <rect
       x="30.85561"
       y="50.66975"
       width="96.650658"
       height="22.385443"
       id="rect971" />
    <rect
       x="30.85561"
       y="50.66975"
       width="96.650658"
       height="22.385443"
       id="rect4011" />
    <rect
       id="rect963"
       height="22.385443"
       width="96.650658"
       y="50.66975"
       x="30.85561" />
    <rect
       id="rect4014"
       height="22.385443"
       width="96.650658"
       y="50.66975"
       x="30.85561" />
    <rect
       id="rect983"
       height="8.7726707"
       width="58.686169"
       y="35.695705"
       x="83.642906" />
    <rect
       id="rect4017"
       height="8.7726707"
       width="58.686169"
       y="35.695705"
       x="83.642906" />
    <rect
       id="rect933"
       height="22.385443"
       width="96.650658"
       y="50.66975"
       x="30.85561" />
    <rect
       id="rect4116"
       height="22.385443"
       width="96.650658"
       y="50.66975"
       x="30.85561" />
    <rect
       x="16.940334"
       y="-28.133057"
       width="81.222855"
       height="69.12262"
       id="rect937" />
    <rect
       x="16.940334"
       y="-28.133057"
       width="81.222855"
       height="69.12262"
       id="rect4119" />
    <rect
       id="rect1490"
       height="22.385443"
       width="96.650658"
       y="50.66975"
       x="30.85561" />
    <rect
       id="rect4355"
       height="22.385443"
       width="96.650658"
       y="50.66975"
       x="30.85561" />
    <rect
       x="30.85561"
       y="50.66975"
       width="96.650658"
       height="22.385443"
       id="rect1498" />
    <rect
       x="30.85561"
       y="50.66975"
       width="96.650658"
       height="22.385443"
       id="rect4358" />
    <rect
       x="30.85561"
       y="50.66975"
       width="96.650658"
       height="22.385443"
       id="rect1472" />
    <rect
       x="30.85561"
       y="50.66975"
       width="96.650658"
       height="22.385443"
       id="rect4436" />
  </defs>
  <metadata
     id="metadata3385">
    <rdf:RDF>
      <cc:Work
         rdf:about="">
        <dc:format>image/svg+xml</dc:format>
        <dc:type
           rdf:resource="http://purl.org/dc/dcmitype/StillImage" />
        <dc:title></dc:title>
      </cc:Work>
    </rdf:RDF>
  </metadata>
  <g
     transform="translate(-138.18172,-129.42099)"
     id="layer1">
    <g
       style="font-size:3.17279px;line-height:0.8;font-family:sans-serif;-inkscape-font-specification:'sans-serif, Normal';text-align:center;letter-spacing:0px;word-spacing:0px;writing-mode:lr-tb;white-space:pre;shape-inside:url(#rect1472);fill:#ffffff;fill-opacity:1"
       id="text1470"
       transform="matrix(1.5713548,-0.00658013,-0.07834977,1.5924396,55.160047,60.510106)"
       aria-label="ACCOUNT 
AND PRIVACY
">
      <path
         id="path868"
         style="font-style:normal;font-variant:normal;font-weight:normal;font-stretch:normal;font-size:3.17279px;font-family:'Gill Sans Ultra Bold';-inkscape-font-specification:'Gill Sans Ultra Bold, ';fill:#ffffff;fill-opacity:1"
         d="m 70.505066,52.957423 h -1.047268 l 0.821083,-2.364101 h 1.491893 l 0.821083,2.364101 h -1.045719 l -0.136331,-0.399697 h -0.76841 z m 0.326884,-0.957414 h 0.387304 l -0.193652,-0.587152 z" />
      <path
         id="path870"
         style="font-style:normal;font-variant:normal;font-weight:normal;font-stretch:normal;font-size:3.17279px;font-family:'Gill Sans Ultra Bold';-inkscape-font-specification:'Gill Sans Ultra Bold, ';fill:#ffffff;fill-opacity:1"
         d="m 74.842091,50.805565 -0.438428,0.835026 q -0.192102,-0.06662 -0.424485,-0.06662 -0.333081,0 -0.333081,0.181258 0,0.08676 0.09295,0.136331 0.09295,0.04802 0.264916,0.04802 0.232382,0 0.399697,-0.08366 l 0.438428,0.895445 q -0.185906,0.111544 -0.449272,0.17816 -0.263367,0.06662 -0.503495,0.06662 -0.602644,0 -0.960513,-0.347024 -0.356319,-0.348573 -0.356319,-0.856715 0,-0.537577 0.371812,-0.88615 0.371811,-0.350123 0.94502,-0.350123 0.247874,0 0.511241,0.06817 0.264915,0.06662 0.441526,0.181258 z" />
      <path
         id="path872"
         style="font-style:normal;font-variant:normal;font-weight:normal;font-stretch:normal;font-size:3.17279px;font-family:'Gill Sans Ultra Bold';-inkscape-font-specification:'Gill Sans Ultra Bold, ';fill:#ffffff;fill-opacity:1"
         d="m 77.323157,50.805565 -0.438428,0.835026 q -0.192102,-0.06662 -0.424485,-0.06662 -0.333081,0 -0.333081,0.181258 0,0.08676 0.09295,0.136331 0.09295,0.04802 0.264916,0.04802 0.232382,0 0.399697,-0.08366 l 0.438428,0.895445 q -0.185906,0.111544 -0.449272,0.17816 -0.263367,0.06662 -0.503495,0.06662 -0.602644,0 -0.960513,-0.347024 -0.356319,-0.348573 -0.356319,-0.856715 0,-0.537577 0.371812,-0.88615 0.371811,-0.350123 0.94502,-0.350123 0.247874,0 0.511241,0.06817 0.264915,0.06662 0.441526,0.181258 z" />
      <path
         id="path874"
         style="font-style:normal;font-variant:normal;font-weight:normal;font-stretch:normal;font-size:3.17279px;font-family:'Gill Sans Ultra Bold';-inkscape-font-specification:'Gill Sans Ultra Bold, ';fill:#ffffff;fill-opacity:1"
         d="m 78.722097,52.996153 q -0.506593,0 -0.859814,-0.35477 -0.351672,-0.356319 -0.351672,-0.86756 0,-0.509691 0.351672,-0.862912 0.353221,-0.35477 0.859814,-0.35477 0.508142,0 0.859813,0.35477 0.353221,0.353221 0.353221,0.862912 0,0.511241 -0.353221,0.86756 -0.351671,0.35477 -0.859813,0.35477 z m 0,-1.533722 q -0.100699,0 -0.167315,0.07126 -0.06662,0.06971 -0.06662,0.176611 0,0.106895 0.06662,0.178159 0.06662,0.06972 0.167315,0.06972 0.102248,0 0.168864,-0.06972 0.06662,-0.07126 0.06662,-0.178159 0,-0.106896 -0.06662,-0.176611 -0.06662,-0.07126 -0.168864,-0.07126 z" />
      <path
         id="path876"
         style="font-style:normal;font-variant:normal;font-weight:normal;font-stretch:normal;font-size:3.17279px;font-family:'Gill Sans Ultra Bold';-inkscape-font-specification:'Gill Sans Ultra Bold, ';fill:#ffffff;fill-opacity:1"
         d="m 82.624566,50.593322 v 1.072056 q 0,0.701794 -0.359417,1.016285 -0.357869,0.31449 -0.817985,0.31449 -0.333081,0 -0.633629,-0.173512 -0.298998,-0.173512 -0.419837,-0.457018 -0.120838,-0.285055 -0.120838,-0.746721 v -1.02558 h 1.047268 v 1.095295 q 0,0.17661 0.03099,0.223086 0.03098,0.04648 0.09295,0.04648 0.08676,0 0.109995,-0.08366 0.02324,-0.08521 0.02324,-0.285055 v -0.996145 z" />
      <path
         id="path878"
         style="font-style:normal;font-variant:normal;font-weight:normal;font-stretch:normal;font-size:3.17279px;font-family:'Gill Sans Ultra Bold';-inkscape-font-specification:'Gill Sans Ultra Bold, ';fill:#ffffff;fill-opacity:1"
         d="M 85.400758,52.976013 H 84.60756 l -0.508142,-0.745171 v 0.726581 h -1.045719 v -2.364101 h 0.74827 l 0.55152,0.799395 v -0.799395 h 1.047269 z" />
      <path
         id="path880"
         style="font-style:normal;font-variant:normal;font-weight:normal;font-stretch:normal;font-size:3.17279px;font-family:'Gill Sans Ultra Bold';-inkscape-font-specification:'Gill Sans Ultra Bold, ';fill:#ffffff;fill-opacity:1"
         d="m 85.685814,51.640591 v -1.047269 h 2.100734 v 1.047269 h -0.526733 v 1.316832 h -1.047268 v -1.316832 z" />
      <path
         id="path882"
         style="font-style:normal;font-variant:normal;font-weight:normal;font-stretch:normal;font-size:3.17279px;font-family:'Gill Sans Ultra Bold';-inkscape-font-specification:'Gill Sans Ultra Bold, ';fill:#ffffff;fill-opacity:1"
         d="m 66.486405,55.6024 h -1.047268 l 0.821083,-2.3641 h 1.491893 l 0.821084,2.3641 h -1.04572 l -0.136331,-0.399697 h -0.76841 z m 0.326885,-0.957414 h 0.387303 l -0.193652,-0.587152 z" />
      <path
         id="path884"
         style="font-style:normal;font-variant:normal;font-weight:normal;font-stretch:normal;font-size:3.17279px;font-family:'Gill Sans Ultra Bold';-inkscape-font-specification:'Gill Sans Ultra Bold, ';fill:#ffffff;fill-opacity:1"
         d="M 71.157285,55.620991 H 70.364088 L 69.855946,54.875819 V 55.6024 h -1.04572 v -2.3641 h 0.748271 l 0.55152,0.799394 V 53.2383 h 1.047268 z" />
      <path
         id="path886"
         style="font-style:normal;font-variant:normal;font-weight:normal;font-stretch:normal;font-size:3.17279px;font-family:'Gill Sans Ultra Bold';-inkscape-font-specification:'Gill Sans Ultra Bold, ';fill:#ffffff;fill-opacity:1"
         d="m 71.6205,53.2383 h 1.16346 q 0.628981,0 0.971357,0.348573 0.342376,0.347024 0.342376,0.838125 0,0.312941 -0.15647,0.5918 -0.154922,0.277309 -0.455469,0.43223 Q 73.185206,55.6024 72.759172,55.6024 H 71.6205 Z m 1.04572,0.904741 v 0.554619 h 0.02634 q 0.189004,0 0.272662,-0.06507 0.08521,-0.06662 0.08521,-0.21689 0,-0.272662 -0.317589,-0.272662 z" />
      <path
         id="path888"
         style="font-style:normal;font-variant:normal;font-weight:normal;font-stretch:normal;font-size:3.17279px;font-family:'Gill Sans Ultra Bold';-inkscape-font-specification:'Gill Sans Ultra Bold, ';fill:#ffffff;fill-opacity:1"
         d="m 75.490437,53.2383 h 1.433023 q 0.45392,0 0.697146,0.230833 0.243227,0.229284 0.243227,0.568561 0,0.331532 -0.230833,0.563914 -0.230833,0.232382 -0.556168,0.232382 -0.271112,0 -0.540676,-0.206045 V 55.6024 h -1.045719 z m 1.045719,0.511241 v 0.514339 q 0.04648,0.01239 0.08676,0.01239 0.117741,0 0.190554,-0.07436 0.07281,-0.07436 0.07281,-0.195201 0,-0.119289 -0.06197,-0.187455 -0.06197,-0.06971 -0.17661,-0.06971 z" />
      <path
         id="path890"
         style="font-style:normal;font-variant:normal;font-weight:normal;font-stretch:normal;font-size:3.17279px;font-family:'Gill Sans Ultra Bold';-inkscape-font-specification:'Gill Sans Ultra Bold, ';fill:#ffffff;fill-opacity:1"
         d="m 78.130297,53.2383 h 1.544567 q 0.401246,0 0.63053,0.202947 0.229283,0.201398 0.229283,0.505044 0,0.33463 -0.269563,0.523634 0.382656,0.436878 0.457018,1.132475 h -1.085999 q -0.02944,-0.447722 -0.134781,-0.661514 -0.103798,-0.213791 -0.325335,-0.213791 V 55.6024 h -1.04572 z m 1.04572,0.486453 v 0.455469 h 0.02943 q 0.281957,0 0.281957,-0.221538 0,-0.09295 -0.05732,-0.162667 -0.05732,-0.07126 -0.190553,-0.07126 z" />
      <path
         id="path892"
         style="font-style:normal;font-variant:normal;font-weight:normal;font-stretch:normal;font-size:3.17279px;font-family:'Gill Sans Ultra Bold';-inkscape-font-specification:'Gill Sans Ultra Bold, ';fill:#ffffff;fill-opacity:1"
         d="m 80.980851,55.6024 v -2.3641 h 1.045719 v 2.3641 z" />
      <path
         id="path894"
         style="font-style:normal;font-variant:normal;font-weight:normal;font-stretch:normal;font-size:3.17279px;font-family:'Gill Sans Ultra Bold';-inkscape-font-specification:'Gill Sans Ultra Bold, ';fill:#ffffff;fill-opacity:1"
         d="m 84.909657,53.2383 -0.802493,2.3641 h -1.014735 l -0.804042,-2.3641 h 1.04417 l 0.266465,0.796296 0.266465,-0.796296 z" />
      <path
         id="path896"
         style="font-style:normal;font-variant:normal;font-weight:normal;font-stretch:normal;font-size:3.17279px;font-family:'Gill Sans Ultra Bold';-inkscape-font-specification:'Gill Sans Ultra Bold, ';fill:#ffffff;fill-opacity:1"
         d="M 85.667998,55.6024 H 84.62073 l 0.821083,-2.3641 h 1.491893 l 0.821083,2.3641 H 86.70907 l -0.136331,-0.399697 h -0.76841 z m 0.326885,-0.957414 h 0.387303 l -0.193652,-0.587152 z" />
      <path
         id="path898"
         style="font-style:normal;font-variant:normal;font-weight:normal;font-stretch:normal;font-size:3.17279px;font-family:'Gill Sans Ultra Bold';-inkscape-font-specification:'Gill Sans Ultra Bold, ';fill:#ffffff;fill-opacity:1"
         d="m 90.002698,53.450542 -0.438427,0.835027 q -0.192103,-0.06662 -0.424485,-0.06662 -0.333081,0 -0.333081,0.181258 0,0.08676 0.09295,0.136331 0.09295,0.04803 0.264916,0.04803 0.232382,0 0.399697,-0.08366 l 0.438427,0.895446 q -0.185905,0.111543 -0.449272,0.17816 -0.263366,0.06662 -0.503494,0.06662 -0.602644,0 -0.960513,-0.347024 -0.356319,-0.348573 -0.356319,-0.856715 0,-0.537578 0.371811,-0.886151 0.371812,-0.350122 0.945021,-0.350122 0.247874,0 0.51124,0.06817 0.264916,0.06662 0.441526,0.181258 z" />
      <path
         id="path900"
         style="font-style:normal;font-variant:normal;font-weight:normal;font-stretch:normal;font-size:3.17279px;font-family:'Gill Sans Ultra Bold';-inkscape-font-specification:'Gill Sans Ultra Bold, ';fill:#ffffff;fill-opacity:1"
         d="M 92.011254,55.6024 H 90.963985 V 54.570624 L 90.062343,53.2383 h 1.059662 l 0.365615,0.536028 0.364065,-0.536028 h 1.059662 l -0.900093,1.332324 z" />
    </g>
    <path
       id="path1530"
       d="m 143.42394,130.23739 c -1.77798,-0.0274 -3.30068,0.47725 -4.33594,1.42969 -1.03527,0.95244 -1.47147,2.1948 -1.62305,3.25586 -0.30316,2.12211 0.34766,3.95312 0.34766,3.95312 l 3.68164,-1.17578 c 0,0 -0.3401,-1.27163 -0.20313,-2.23047 0.0685,-0.47942 0.21145,-0.77258 0.41407,-0.95898 0.20261,-0.18641 0.57725,-0.42487 1.66015,-0.40821 2.52582,0.0388 3.44012,0.0709 3.82227,0.0937 0.0273,0.0691 0.0524,0.10531 0.0703,0.18946 0.0805,0.37829 0.15656,0.90717 0.21289,1.42187 0.11267,1.02941 0.1543,1.99219 0.1543,1.99219 l 3.86133,-0.16797 c 0,0 -0.0444,-1.06186 -0.17383,-2.24414 -0.0647,-0.59114 -0.14762,-1.21526 -0.27344,-1.80664 -0.12582,-0.59138 -0.11405,-1.07809 -0.7832,-1.89063 -0.008,-0.01 0.0622,-0.0111 -0.32617,-0.45898 -0.38838,-0.44788 -1.17147,-0.77416 -1.64844,-0.8457 -0.95394,-0.1431 -2.00476,-0.10457 -4.85742,-0.14844 z"
       style="color:#000000;font-style:normal;font-variant:normal;font-weight:normal;font-stretch:normal;font-size:medium;line-height:normal;font-family:sans-serif;font-variant-ligatures:normal;font-variant-position:normal;font-variant-caps:normal;font-variant-numeric:normal;font-variant-alternates:normal;font-variant-east-asian:normal;font-feature-settings:normal;font-variation-settings:normal;text-indent:0;text-align:start;text-decoration:none;text-decoration-line:none;text-decoration-style:solid;text-decoration-color:#000000;letter-spacing:normal;word-spacing:normal;text-transform:none;writing-mode:lr-tb;direction:ltr;text-orientation:mixed;dominant-baseline:auto;baseline-shift:baseline;text-anchor:start;white-space:normal;shape-padding:0;shape-margin:0;inline-size:0;clip-rule:nonzero;display:inline;overflow:visible;visibility:visible;opacity:1;isolation:auto;mix-blend-mode:normal;color-interpolation:sRGB;color-interpolation-filters:linearRGB;solid-color:#000000;solid-opacity:1;vector-effect:none;fill:#003ce5;fill-opacity:1;fill-rule:nonzero;stroke:none;stroke-width:3.86543;stroke-linecap:butt;stroke-linejoin:miter;stroke-miterlimit:4;stroke-dasharray:none;stroke-dashoffset:0;stroke-opacity:1;color-rendering:auto;image-rendering:auto;shape-rendering:auto;text-rendering:auto;enable-background:accumulate;stop-color:#000000;stop-opacity:1" />
    <path
       id="path1508"
       d="m 137.16174,150.80742 c -2.24081,-3.11224 -1.24489,-13.32037 -1.24489,-13.32037 l 17.55301,0.12449 c 0,0 -0.23648,11.88561 -1.60586,13.00601 -1.36939,1.12041 -14.70226,0.18987 -14.70226,0.18987 z"
       style="fill:#003ce5;fill-opacity:1;stroke:none;stroke-width:0.255682px;stroke-linecap:butt;stroke-linejoin:miter;stroke-opacity:1" />
    <path
       style="fill:none;stroke:#172548;stroke-width:3.86543;stroke-linecap:butt;stroke-linejoin:miter;stroke-miterlimit:4;stroke-dasharray:none;stroke-opacity:1"
       d="m 141.00605,137.32227 c 0,0 -1.9806,-6.20592 3.74116,-6.11788 5.72178,0.088 4.75348,0 5.36968,0.74822 0.61619,0.74823 0.79224,4.79749 0.79224,4.79749"
       id="path1518" />
    <path
       style="fill:#172548;fill-opacity:1;stroke:none;stroke-width:0.255682px;stroke-linecap:butt;stroke-linejoin:miter;stroke-opacity:1"
       d="m 138.51438,149.84125 c -2.24081,-3.11224 -1.24489,-13.32037 -1.24489,-13.32037 l 17.55301,0.12449 c 0,0 -0.23648,11.88561 -1.60586,13.00601 -1.36939,1.12041 -14.70226,0.18987 -14.70226,0.18987 z"
       id="path1520" />
  </g>
</svg>
