<?xml version="1.0" encoding="UTF-8" standalone="no"?>
<svg
   xmlns:dc="http://purl.org/dc/elements/1.1/"
   xmlns:cc="http://creativecommons.org/ns#"
   xmlns:rdf="http://www.w3.org/1999/02/22-rdf-syntax-ns#"
   xmlns:svg="http://www.w3.org/2000/svg"
   xmlns="http://www.w3.org/2000/svg"
   xmlns:sodipodi="http://sodipodi.sourceforge.net/DTD/sodipodi-0.dtd"
   xmlns:inkscape="http://www.inkscape.org/namespaces/inkscape"
   width="116.43075mm"
   height="67.761299mm"
   viewBox="0 0 116.43075 67.761299"
   version="1.1"
   id="svg3388"
   inkscape:version="1.0 (4035a4fb49, 2020-05-01)"
   sodipodi:docname="createMemes.svg">
  <defs
     id="defs3382">
    <rect
       x="30.85561"
       y="50.66975"
       width="96.650658"
       height="22.385443"
       id="rect891-7" />
    <rect
       x="30.85561"
       y="50.66975"
       width="96.650658"
       height="22.385443"
       id="rect3960" />
  </defs>
  <sodipodi:namedview
     id="base"
     pagecolor="#ffffff"
     bordercolor="#666666"
     borderopacity="1.0"
     inkscape:pageopacity="0.0"
     inkscape:pageshadow="2"
     inkscape:zoom="0.7"
     inkscape:cx="129.53579"
     inkscape:cy="345.20891"
     inkscape:document-units="mm"
     inkscape:current-layer="layer1"
     inkscape:document-rotation="0"
     showgrid="false"
     fit-margin-top="0"
     fit-margin-left="0"
     fit-margin-right="0"
     fit-margin-bottom="0"
     inkscape:window-width="1481"
     inkscape:window-height="1039"
     inkscape:window-x="1165"
     inkscape:window-y="277"
     inkscape:window-maximized="0" />
  <metadata
     id="metadata3385">
    <rdf:RDF>
      <cc:Work
         rdf:about="">
        <dc:format>image/svg+xml</dc:format>
        <dc:type
           rdf:resource="http://purl.org/dc/dcmitype/StillImage" />
        <dc:title></dc:title>
      </cc:Work>
    </rdf:RDF>
  </metadata>
  <g
     inkscape:label="Ebene 1"
     inkscape:groupmode="layer"
     id="layer1"
     transform="translate(-40.436411,-12.232445)">
    <path
       id="path919-0"
       d="m 147.45385,26.868745 c -4.83474,1.7162 -69.367969,0 -71.680239,-2.5742 -2.31226,-2.5743 27.116569,21.623897 30.690069,31.920997 3.5735,10.2971 0.42041,15.4457 1.68165,15.4457 1.26123,0 13.45318,-12.8714 13.45318,-12.8714 l 15.34504,13.3862 15.97564,-20.251 -17.8675,-9.0957 z"
       style="fill:#ff71fd;fill-opacity:1;stroke:none;stroke-width:0.332248px;stroke-linecap:butt;stroke-linejoin:miter;stroke-opacity:1" />
    <path
       style="fill:#ffd871;fill-opacity:1;stroke:none;stroke-width:0.332248px;stroke-linecap:butt;stroke-linejoin:miter;stroke-opacity:1"
       d="m 151.40182,23.760845 c -4.83474,1.7162 -69.36798,0 -71.680248,-2.5743 -2.31226,-2.5742 27.116568,21.623997 30.690068,31.921097 3.5735,10.2971 0.42041,15.4457 1.68165,15.4457 1.26123,0 13.45319,-12.8714 13.45319,-12.8714 l 15.34504,13.3862 15.97564,-20.251 -17.8675,-9.0958 z"
       id="path917-2" />
    <path
       style="fill:#ff71fd;fill-opacity:1;stroke:none;stroke-width:0.264583px;stroke-linecap:butt;stroke-linejoin:miter;stroke-opacity:1"
       d="m 59.807041,14.652545 c 0.60501,0.1512 10.285209,27.527997 22.687949,44.468297 12.402741,16.9404 17.54535,20.8729 17.54535,20.8729 0,0 -30.55311,-22.5366 -38.720769,-35.3932 C 53.151911,31.744045 48.76557,19.190045 48.76557,19.190045 l 4.083831,-6.9576 z"
       id="path943-4" />
    <g
       style="font-size:6.35px;line-height:0.8;font-family:sans-serif;-inkscape-font-specification:'sans-serif, Normal';text-align:center;letter-spacing:0px;word-spacing:0px;writing-mode:lr-tb;white-space:pre;shape-inside:url(#rect891-7);fill:#ffd871;fill-opacity:1"
       id="text889-0"
       transform="rotate(8.7854703,43.492391,58.301001)"
       aria-label="CREATE
       MEMES
">
      <path
         id="path846"
         style="font-style:normal;font-variant:normal;font-weight:normal;font-stretch:normal;font-size:11.2889px;font-family:'Gill Sans Ultra Bold';-inkscape-font-specification:'Gill Sans Ultra Bold, ';fill:#ffd871;fill-opacity:1"
         d="m 61.161418,51.152544 -1.559941,2.971053 q -0.683507,-0.237022 -1.510331,-0.237022 -1.185114,0 -1.185114,0.644922 0,0.308681 0.33073,0.48507 0.330729,0.170877 0.942579,0.170877 0.826823,0 1.422136,-0.297657 l 1.559941,3.186028 q -0.661459,0.396875 -1.598526,0.633898 -0.937067,0.237023 -1.791451,0.237023 -2.14423,0 -3.417538,-1.234723 -1.267797,-1.240236 -1.267797,-3.048224 0,-1.912719 1.322918,-3.152955 1.322918,-1.245747 3.362417,-1.245747 0.881945,0 1.819012,0.242535 0.942579,0.237022 1.570965,0.644922 z" />
      <path
         id="path848"
         style="font-style:normal;font-variant:normal;font-weight:normal;font-stretch:normal;font-size:11.2889px;font-family:'Gill Sans Ultra Bold';-inkscape-font-specification:'Gill Sans Ultra Bold, ';fill:#ffd871;fill-opacity:1"
         d="m 62.148094,50.397378 h 5.495622 q 1.427649,0 2.243449,0.722093 0.815799,0.716581 0.815799,1.796964 0,1.190626 -0.959115,1.863109 1.361503,1.554429 1.626086,4.029388 H 67.505912 Q 67.401181,57.215918 67.026355,56.45524 66.65704,55.694563 65.868801,55.694563 v 3.114369 h -3.720707 z m 3.720707,1.730818 v 1.620575 h 0.104731 q 1.003213,0 1.003213,-0.788239 0,-0.330729 -0.20395,-0.578777 -0.20395,-0.253559 -0.677995,-0.253559 z" />
      <path
         id="path850"
         style="font-style:normal;font-variant:normal;font-weight:normal;font-stretch:normal;font-size:11.2889px;font-family:'Gill Sans Ultra Bold';-inkscape-font-specification:'Gill Sans Ultra Bold, ';fill:#ffd871;fill-opacity:1"
         d="m 79.252323,56.697775 v 2.111157 h -6.983904 v -8.411554 h 6.983904 v 2.111157 h -3.263197 v 1.041798 h 2.271009 v 2.111157 h -2.271009 v 1.036285 z" />
      <path
         id="path852"
         style="font-style:normal;font-variant:normal;font-weight:normal;font-stretch:normal;font-size:11.2889px;font-family:'Gill Sans Ultra Bold';-inkscape-font-specification:'Gill Sans Ultra Bold, ';fill:#ffd871;fill-opacity:1"
         d="m 83.292734,58.808932 h -3.726219 l 2.921444,-8.411554 h 5.308208 l 2.921444,8.411554 h -3.720707 l -0.48507,-1.422137 h -2.73403 z m 1.163065,-3.406514 h 1.37804 l -0.68902,-2.089108 z" />
      <path
         id="path854"
         style="font-style:normal;font-variant:normal;font-weight:normal;font-stretch:normal;font-size:11.2889px;font-family:'Gill Sans Ultra Bold';-inkscape-font-specification:'Gill Sans Ultra Bold, ';fill:#ffd871;fill-opacity:1"
         d="m 90.04513,54.123597 v -3.726219 h 7.474487 v 3.726219 h -1.874134 v 4.685335 h -3.726219 v -4.685335 z" />
      <path
         id="path856"
         style="font-style:normal;font-variant:normal;font-weight:normal;font-stretch:normal;font-size:11.2889px;font-family:'Gill Sans Ultra Bold';-inkscape-font-specification:'Gill Sans Ultra Bold, ';fill:#ffd871;fill-opacity:1"
         d="m 105.55634,56.697775 v 2.111157 h -6.983901 v -8.411554 h 6.983901 v 2.111157 h -3.26319 v 1.041798 h 2.271 v 2.111157 h -2.271 v 1.036285 z" />
      <path
         id="path858"
         style="font-style:normal;font-variant:normal;font-weight:normal;font-stretch:normal;font-size:11.2889px;font-family:'Gill Sans Ultra Bold';-inkscape-font-specification:'Gill Sans Ultra Bold, ';fill:#ffd871;fill-opacity:1"
         d="m 69.065853,67.840052 v -8.411553 h 3.615976 l 1.521356,1.752866 1.526867,-1.752866 h 3.610464 v 8.411553 h -3.726219 v -4.211289 l -1.411112,1.626087 -1.411113,-1.626087 v 4.211289 z" />
      <path
         id="path860"
         style="font-style:normal;font-variant:normal;font-weight:normal;font-stretch:normal;font-size:11.2889px;font-family:'Gill Sans Ultra Bold';-inkscape-font-specification:'Gill Sans Ultra Bold, ';fill:#ffd871;fill-opacity:1"
         d="m 87.961533,65.728896 v 2.111156 h -6.983905 v -8.411553 h 6.983905 v 2.111156 h -3.263198 v 1.041798 h 2.271009 v 2.111157 h -2.271009 v 1.036286 z" />
      <path
         id="path862"
         style="font-style:normal;font-variant:normal;font-weight:normal;font-stretch:normal;font-size:11.2889px;font-family:'Gill Sans Ultra Bold';-inkscape-font-specification:'Gill Sans Ultra Bold, ';fill:#ffd871;fill-opacity:1"
         d="m 89.063963,67.840052 v -8.411553 h 3.615976 l 1.521355,1.752866 1.526868,-1.752866 h 3.610464 v 8.411553 h -3.726219 v -4.211289 l -1.411113,1.626087 -1.411112,-1.626087 v 4.211289 z" />
      <path
         id="path864"
         style="font-style:normal;font-variant:normal;font-weight:normal;font-stretch:normal;font-size:11.2889px;font-family:'Gill Sans Ultra Bold';-inkscape-font-specification:'Gill Sans Ultra Bold, ';fill:#ffd871;fill-opacity:1"
         d="m 107.95964,65.728896 v 2.111156 h -6.9839 v -8.411553 h 6.9839 v 2.111156 h -3.26319 v 1.041798 h 2.27101 v 2.111157 h -2.27101 v 1.036286 z" />
      <path
         id="path866"
         style="font-style:normal;font-variant:normal;font-weight:normal;font-stretch:normal;font-size:11.2889px;font-family:'Gill Sans Ultra Bold';-inkscape-font-specification:'Gill Sans Ultra Bold, ';fill:#ffd871;fill-opacity:1"
         d="m 116.1452,59.858447 -0.92604,2.651348 q -0.90951,-1.229211 -2.08911,-1.229211 -0.65595,0 -0.65595,0.496094 0,0.154341 0.20395,0.314193 0.20946,0.159853 1.0859,0.501607 0.96462,0.380339 1.48277,0.694532 0.52365,0.30868 0.78272,0.79375 0.25907,0.48507 0.25907,1.129993 0,1.350479 -1.02526,2.061547 -1.02526,0.705556 -3.01515,0.705556 -2.23242,0 -3.84748,-0.633898 l 0.9095,-2.811201 q 0.39688,0.617362 0.98117,0.981165 0.5898,0.363802 1.12999,0.363802 0.26458,0 0.44097,-0.137804 0.1819,-0.137804 0.1819,-0.336242 0,-0.187413 -0.17639,-0.35829 -0.17087,-0.170877 -0.91502,-0.474046 -0.67248,-0.270095 -1.11345,-0.523655 -0.44097,-0.259071 -0.76619,-0.733117 -0.32522,-0.474045 -0.32522,-1.196138 0,-1.400088 1.01975,-2.111157 1.01975,-0.711068 3.00964,-0.711068 1.81901,0 3.36793,0.56224 z" />
    </g>
  </g>
</svg>
