<?xml version="1.0" encoding="UTF-8" standalone="no"?>
<svg
   xmlns:dc="http://purl.org/dc/elements/1.1/"
   xmlns:cc="http://creativecommons.org/ns#"
   xmlns:rdf="http://www.w3.org/1999/02/22-rdf-syntax-ns#"
   xmlns:svg="http://www.w3.org/2000/svg"
   xmlns="http://www.w3.org/2000/svg"
   xmlns:sodipodi="http://sodipodi.sourceforge.net/DTD/sodipodi-0.dtd"
   xmlns:inkscape="http://www.inkscape.org/namespaces/inkscape"
   width="82.093819mm"
   height="22.672894mm"
   viewBox="0 0 82.093821 22.672894"
   version="1.1"
   id="svg3388"
   inkscape:version="1.0 (4035a4fb49, 2020-05-01)"
   sodipodi:docname="singleMemes.svg">
  <defs
     id="defs3382">
    <rect
       x="30.85561"
       y="50.66975"
       width="96.650658"
       height="22.385443"
       id="rect891-7" />
    <rect
       x="30.85561"
       y="50.66975"
       width="96.650658"
       height="22.385443"
       id="rect3960" />
    <rect
       id="rect971"
       height="22.385443"
       width="96.650658"
       y="50.66975"
       x="30.85561" />
    <rect
       id="rect4011"
       height="22.385443"
       width="96.650658"
       y="50.66975"
       x="30.85561" />
    <rect
       x="30.85561"
       y="50.66975"
       width="96.650658"
       height="22.385443"
       id="rect963" />
    <rect
       x="30.85561"
       y="50.66975"
       width="96.650658"
       height="22.385443"
       id="rect4014" />
    <rect
       x="83.642906"
       y="35.695705"
       width="58.686169"
       height="8.7726707"
       id="rect983" />
    <rect
       x="83.642906"
       y="35.695705"
       width="58.686169"
       height="8.7726707"
       id="rect4017" />
    <rect
       x="30.85561"
       y="50.66975"
       width="96.650658"
       height="22.385443"
       id="rect933" />
    <rect
       x="30.85561"
       y="50.66975"
       width="96.650658"
       height="22.385443"
       id="rect4116" />
    <rect
       id="rect937"
       height="69.12262"
       width="81.222855"
       y="-28.133057"
       x="16.940334" />
    <rect
       id="rect4119"
       height="69.12262"
       width="81.222855"
       y="-28.133057"
       x="16.940334" />
    <rect
       x="30.85561"
       y="50.66975"
       width="96.650658"
       height="22.385443"
       id="rect1490" />
    <rect
       x="30.85561"
       y="50.66975"
       width="96.650658"
       height="22.385443"
       id="rect4355" />
    <rect
       id="rect1498"
       height="22.385443"
       width="96.650658"
       y="50.66975"
       x="30.85561" />
    <rect
       id="rect4358"
       height="22.385443"
       width="96.650658"
       y="50.66975"
       x="30.85561" />
  </defs>
  <sodipodi:namedview
     id="base"
     pagecolor="#ffffff"
     bordercolor="#666666"
     borderopacity="1.0"
     inkscape:pageopacity="0.0"
     inkscape:pageshadow="2"
     inkscape:zoom="1.4"
     inkscape:cx="176.34732"
     inkscape:cy="186.43571"
     inkscape:document-units="mm"
     inkscape:current-layer="layer1"
     inkscape:document-rotation="0"
     showgrid="false"
     fit-margin-top="0"
     fit-margin-left="0"
     fit-margin-right="0"
     fit-margin-bottom="0"
     inkscape:window-width="1481"
     inkscape:window-height="1039"
     inkscape:window-x="1165"
     inkscape:window-y="277"
     inkscape:window-maximized="0" />
  <metadata
     id="metadata3385">
    <rdf:RDF>
      <cc:Work
         rdf:about="">
        <dc:format>image/svg+xml</dc:format>
        <dc:type
           rdf:resource="http://purl.org/dc/dcmitype/StillImage" />
        <dc:title></dc:title>
      </cc:Work>
    </rdf:RDF>
  </metadata>
  <g
     inkscape:label="Ebene 1"
     inkscape:groupmode="layer"
     id="layer1"
     transform="translate(-138.18172,-129.42099)">
    <g
       style="font-size:3.17279px;line-height:0.8;font-family:sans-serif;-inkscape-font-specification:'sans-serif, Normal';text-align:center;letter-spacing:0px;word-spacing:0px;writing-mode:lr-tb;white-space:pre;shape-inside:url(#rect1490);fill:#00e5c4;fill-opacity:1"
       id="text1488"
       transform="matrix(1.9581694,0.29866558,-0.37450548,1.4167342,54.062286,44.132675)"
       aria-label="VIEW SINGLE
MEMES
">
      <path
         id="path869"
         style="font-style:normal;font-variant:normal;font-weight:normal;font-stretch:normal;font-size:3.17279px;font-family:'Gill Sans Ultra Bold';-inkscape-font-specification:'Gill Sans Ultra Bold, ';fill:#00e5c4;fill-opacity:1"
         d="m 69.191333,50.593322 -0.802493,2.364101 h -1.014735 l -0.804042,-2.364101 h 1.04417 l 0.266465,0.796296 0.266465,-0.796296 z" />
      <path
         id="path871"
         style="font-style:normal;font-variant:normal;font-weight:normal;font-stretch:normal;font-size:3.17279px;font-family:'Gill Sans Ultra Bold';-inkscape-font-specification:'Gill Sans Ultra Bold, ';fill:#00e5c4;fill-opacity:1"
         d="m 69.457798,52.957423 v -2.364101 h 1.045719 v 2.364101 z" />
      <path
         id="path873"
         style="font-style:normal;font-variant:normal;font-weight:normal;font-stretch:normal;font-size:3.17279px;font-family:'Gill Sans Ultra Bold';-inkscape-font-specification:'Gill Sans Ultra Bold, ';fill:#00e5c4;fill-opacity:1"
         d="m 72.932684,52.364074 v 0.593349 H 70.96983 v -2.364101 h 1.962854 v 0.593349 H 72.01555 v 0.292802 h 0.638276 v 0.593349 H 72.01555 v 0.291252 z" />
      <path
         id="path875"
         style="font-style:normal;font-variant:normal;font-weight:normal;font-stretch:normal;font-size:3.17279px;font-family:'Gill Sans Ultra Bold';-inkscape-font-specification:'Gill Sans Ultra Bold, ';fill:#00e5c4;fill-opacity:1"
         d="m 74.622877,52.957423 h -0.769959 l -0.835027,-2.364101 h 1.020932 l 0.274211,0.771509 0.288154,-0.771509 h 0.726581 l 0.302097,0.771509 0.258719,-0.771509 h 1.022481 l -0.796296,2.364101 h -0.771509 l -0.37336,-0.935725 z" />
      <path
         id="path877"
         style="font-style:normal;font-variant:normal;font-weight:normal;font-stretch:normal;font-size:3.17279px;font-family:'Gill Sans Ultra Bold';-inkscape-font-specification:'Gill Sans Ultra Bold, ';fill:#00e5c4;fill-opacity:1"
         d="m 80.190752,50.714161 -0.260268,0.745172 q -0.25562,-0.345475 -0.587152,-0.345475 -0.184357,0 -0.184357,0.13943 0,0.04338 0.05732,0.08831 0.05887,0.04493 0.305196,0.140978 0.271112,0.106896 0.416738,0.195201 0.147175,0.08676 0.219988,0.223087 0.07281,0.136331 0.07281,0.317589 0,0.379557 -0.288153,0.579406 -0.288154,0.198299 -0.84742,0.198299 -0.627432,0 -1.081352,-0.178159 l 0.255621,-0.790099 q 0.111543,0.173511 0.27576,0.27576 0.165766,0.102248 0.317589,0.102248 0.07436,0 0.123937,-0.03873 0.05112,-0.03873 0.05112,-0.0945 0,-0.05267 -0.04958,-0.100699 -0.04803,-0.04803 -0.25717,-0.133232 -0.189004,-0.07591 -0.312941,-0.147175 -0.123937,-0.07281 -0.21534,-0.206046 -0.0914,-0.133232 -0.0914,-0.336179 0,-0.3935 0.286604,-0.593349 0.286605,-0.199849 0.845871,-0.199849 0.511241,0 0.94657,0.15802 z" />
      <path
         id="path879"
         style="font-style:normal;font-variant:normal;font-weight:normal;font-stretch:normal;font-size:3.17279px;font-family:'Gill Sans Ultra Bold';-inkscape-font-specification:'Gill Sans Ultra Bold, ';fill:#00e5c4;fill-opacity:1"
         d="m 80.525382,52.957423 v -2.364101 h 1.045719 v 2.364101 z" />
      <path
         id="path881"
         style="font-style:normal;font-variant:normal;font-weight:normal;font-stretch:normal;font-size:3.17279px;font-family:'Gill Sans Ultra Bold';-inkscape-font-specification:'Gill Sans Ultra Bold, ';fill:#00e5c4;fill-opacity:1"
         d="m 84.384474,52.976013 h -0.793198 l -0.508142,-0.745171 v 0.726581 h -1.045719 v -2.364101 h 0.74827 l 0.55152,0.799395 v -0.799395 h 1.047269 z" />
      <path
         id="path883"
         style="font-style:normal;font-variant:normal;font-weight:normal;font-stretch:normal;font-size:3.17279px;font-family:'Gill Sans Ultra Bold';-inkscape-font-specification:'Gill Sans Ultra Bold, ';fill:#00e5c4;fill-opacity:1"
         d="m 87.233477,50.872181 -0.505043,0.711089 q -0.31604,-0.151823 -0.584054,-0.151823 -0.17816,0 -0.286605,0.09295 -0.106895,0.0914 -0.106895,0.243227 0,0.288153 0.378008,0.288153 v -0.370262 h 1.047268 v 1.275003 q -0.635177,0.03563 -0.859813,0.03563 -0.86756,0 -1.205289,-0.368713 -0.337728,-0.368713 -0.337728,-0.859813 0,-0.337729 0.15647,-0.619686 0.15802,-0.281957 0.45392,-0.436878 0.297449,-0.154922 0.703343,-0.154922 0.285055,0 0.59025,0.08366 0.305196,0.08211 0.556168,0.232382 z" />
      <path
         id="path885"
         style="font-style:normal;font-variant:normal;font-weight:normal;font-stretch:normal;font-size:3.17279px;font-family:'Gill Sans Ultra Bold';-inkscape-font-specification:'Gill Sans Ultra Bold, ';fill:#00e5c4;fill-opacity:1"
         d="m 87.547969,52.957423 v -2.364101 h 1.047268 v 1.770752 h 0.917135 v 0.593349 z" />
      <path
         id="path887"
         style="font-style:normal;font-variant:normal;font-weight:normal;font-stretch:normal;font-size:3.17279px;font-family:'Gill Sans Ultra Bold';-inkscape-font-specification:'Gill Sans Ultra Bold, ';fill:#00e5c4;fill-opacity:1"
         d="m 91.733944,52.364074 v 0.593349 H 89.77109 v -2.364101 h 1.962854 v 0.593349 h -0.917135 v 0.292802 h 0.638276 v 0.593349 h -0.638276 v 0.291252 z" />
      <path
         id="path889"
         style="font-style:normal;font-variant:normal;font-weight:normal;font-stretch:normal;font-size:3.17279px;font-family:'Gill Sans Ultra Bold';-inkscape-font-specification:'Gill Sans Ultra Bold, ';fill:#00e5c4;fill-opacity:1"
         d="m 72.629039,55.6024 v -2.3641 h 1.016284 l 0.427583,0.49265 0.429132,-0.49265 h 1.014735 v 2.3641 h -1.047268 v -1.183599 l -0.396599,0.457018 -0.396599,-0.457018 V 55.6024 Z" />
      <path
         id="path891"
         style="font-style:normal;font-variant:normal;font-weight:normal;font-stretch:normal;font-size:3.17279px;font-family:'Gill Sans Ultra Bold';-inkscape-font-specification:'Gill Sans Ultra Bold, ';fill:#00e5c4;fill-opacity:1"
         d="M 77.939744,55.009052 V 55.6024 H 75.97689 v -2.3641 h 1.962854 v 0.593349 h -0.917135 v 0.292801 h 0.638276 v 0.593349 h -0.638276 v 0.291253 z" />
      <path
         id="path893"
         style="font-style:normal;font-variant:normal;font-weight:normal;font-stretch:normal;font-size:3.17279px;font-family:'Gill Sans Ultra Bold';-inkscape-font-specification:'Gill Sans Ultra Bold, ';fill:#00e5c4;fill-opacity:1"
         d="m 78.249587,55.6024 v -2.3641 h 1.016284 l 0.427583,0.49265 0.429132,-0.49265 h 1.014735 v 2.3641 h -1.047268 v -1.183599 l -0.396599,0.457018 -0.396599,-0.457018 V 55.6024 Z" />
      <path
         id="path895"
         style="font-style:normal;font-variant:normal;font-weight:normal;font-stretch:normal;font-size:3.17279px;font-family:'Gill Sans Ultra Bold';-inkscape-font-specification:'Gill Sans Ultra Bold, ';fill:#00e5c4;fill-opacity:1"
         d="M 83.560292,55.009052 V 55.6024 h -1.962854 v -2.3641 h 1.962854 v 0.593349 h -0.917135 v 0.292801 h 0.638276 v 0.593349 h -0.638276 v 0.291253 z" />
      <path
         id="path897"
         style="font-style:normal;font-variant:normal;font-weight:normal;font-stretch:normal;font-size:3.17279px;font-family:'Gill Sans Ultra Bold';-inkscape-font-specification:'Gill Sans Ultra Bold, ';fill:#00e5c4;fill-opacity:1"
         d="m 85.860875,53.359139 -0.260268,0.745172 q -0.25562,-0.345475 -0.587152,-0.345475 -0.184357,0 -0.184357,0.139429 0,0.04338 0.05732,0.0883 0.05887,0.04493 0.305195,0.140979 0.271113,0.106896 0.416739,0.195201 0.147175,0.08676 0.219988,0.223087 0.07281,0.13633 0.07281,0.317588 0,0.379558 -0.288153,0.579406 -0.288154,0.1983 -0.84742,0.1983 -0.627432,0 -1.081352,-0.17816 l 0.255621,-0.790099 q 0.111543,0.173512 0.27576,0.27576 0.165766,0.102248 0.317589,0.102248 0.07436,0 0.123937,-0.03873 0.05112,-0.03873 0.05112,-0.0945 0,-0.05267 -0.04957,-0.100699 -0.04803,-0.04803 -0.25717,-0.133232 -0.189004,-0.07591 -0.312941,-0.147176 -0.123937,-0.07281 -0.215341,-0.206045 -0.0914,-0.133233 -0.0914,-0.33618 0,-0.3935 0.286604,-0.593349 0.286605,-0.199848 0.845871,-0.199848 0.511241,0 0.94657,0.15802 z" />
    </g>
    <path
       style="fill:#003ce5;fill-opacity:1;stroke:none;stroke-width:0.172972px;stroke-linecap:butt;stroke-linejoin:miter;stroke-opacity:1"
       d="m 155.71872,136.76106 c 1.58885,0.56901 7.29689,3.62732 5.60203,0.85417 -1.69486,-2.77316 -2.85153,-4.53999 -2.85153,-4.53999 0,0 2.98372,3.28478 3.73148,3.79791 1.72533,1.18397 -0.0279,-5.00697 -0.0279,-5.00697 0,0 1.74198,6.25657 3.56727,5.101 1.8253,-1.15558 4.76722,-3.36547 4.76722,-3.36547 0,0 -5.63352,4.61644 -3.76813,5.40141 1.8654,0.78497 6.07816,-0.16791 6.07816,-0.16791 0,0 -6.10907,1.07505 -6.0666,2.04363 0.0345,0.78778 2.57119,5.33854 2.57119,5.33854 0,0 -2.8987,-4.10486 -3.72682,-3.8918 -1.52992,0.39361 -2.9486,5.26292 -2.9486,5.26292 0,0 0.77182,-5.48052 -0.0119,-5.84235 -0.84473,-0.39 -6.50997,1.97884 -6.50997,1.97884 0,0 5.06821,-2.42156 4.95583,-3.52817 -0.10643,-1.04799 -5.36175,-3.43576 -5.36175,-3.43576 z"
       id="path1536"
       sodipodi:nodetypes="cscscscscscscscsc" />
    <g
       style="font-size:3.17279px;line-height:0.8;font-family:sans-serif;-inkscape-font-specification:'sans-serif, Normal';text-align:center;letter-spacing:0px;word-spacing:0px;writing-mode:lr-tb;white-space:pre;shape-inside:url(#rect1498);fill:#ffffff;fill-opacity:1"
       id="text1496"
       transform="matrix(1.9581694,0.29866558,-0.37450548,1.4167342,54.319911,43.488547)"
       aria-label="VIEW SINGLE
MEMES
">
      <path
         id="path900"
         style="font-style:normal;font-variant:normal;font-weight:normal;font-stretch:normal;font-size:3.17279px;font-family:'Gill Sans Ultra Bold';-inkscape-font-specification:'Gill Sans Ultra Bold, ';fill:#ffffff;fill-opacity:1"
         d="m 69.191333,50.593322 -0.802493,2.364101 h -1.014735 l -0.804042,-2.364101 h 1.04417 l 0.266465,0.796296 0.266465,-0.796296 z" />
      <path
         id="path902"
         style="font-style:normal;font-variant:normal;font-weight:normal;font-stretch:normal;font-size:3.17279px;font-family:'Gill Sans Ultra Bold';-inkscape-font-specification:'Gill Sans Ultra Bold, ';fill:#ffffff;fill-opacity:1"
         d="m 69.457798,52.957423 v -2.364101 h 1.045719 v 2.364101 z" />
      <path
         id="path904"
         style="font-style:normal;font-variant:normal;font-weight:normal;font-stretch:normal;font-size:3.17279px;font-family:'Gill Sans Ultra Bold';-inkscape-font-specification:'Gill Sans Ultra Bold, ';fill:#ffffff;fill-opacity:1"
         d="m 72.932684,52.364074 v 0.593349 H 70.96983 v -2.364101 h 1.962854 v 0.593349 H 72.01555 v 0.292802 h 0.638276 v 0.593349 H 72.01555 v 0.291252 z" />
      <path
         id="path906"
         style="font-style:normal;font-variant:normal;font-weight:normal;font-stretch:normal;font-size:3.17279px;font-family:'Gill Sans Ultra Bold';-inkscape-font-specification:'Gill Sans Ultra Bold, ';fill:#ffffff;fill-opacity:1"
         d="m 74.622877,52.957423 h -0.769959 l -0.835027,-2.364101 h 1.020932 l 0.274211,0.771509 0.288154,-0.771509 h 0.726581 l 0.302097,0.771509 0.258719,-0.771509 h 1.022481 l -0.796296,2.364101 h -0.771509 l -0.37336,-0.935725 z" />
      <path
         id="path908"
         style="font-style:normal;font-variant:normal;font-weight:normal;font-stretch:normal;font-size:3.17279px;font-family:'Gill Sans Ultra Bold';-inkscape-font-specification:'Gill Sans Ultra Bold, ';fill:#ffffff;fill-opacity:1"
         d="m 80.190752,50.714161 -0.260268,0.745172 q -0.25562,-0.345475 -0.587152,-0.345475 -0.184357,0 -0.184357,0.13943 0,0.04338 0.05732,0.08831 0.05887,0.04493 0.305196,0.140978 0.271112,0.106896 0.416738,0.195201 0.147175,0.08676 0.219988,0.223087 0.07281,0.136331 0.07281,0.317589 0,0.379557 -0.288153,0.579406 -0.288154,0.198299 -0.84742,0.198299 -0.627432,0 -1.081352,-0.178159 l 0.255621,-0.790099 q 0.111543,0.173511 0.27576,0.27576 0.165766,0.102248 0.317589,0.102248 0.07436,0 0.123937,-0.03873 0.05112,-0.03873 0.05112,-0.0945 0,-0.05267 -0.04958,-0.100699 -0.04803,-0.04803 -0.25717,-0.133232 -0.189004,-0.07591 -0.312941,-0.147175 -0.123937,-0.07281 -0.21534,-0.206046 -0.0914,-0.133232 -0.0914,-0.336179 0,-0.3935 0.286604,-0.593349 0.286605,-0.199849 0.845871,-0.199849 0.511241,0 0.94657,0.15802 z" />
      <path
         id="path910"
         style="font-style:normal;font-variant:normal;font-weight:normal;font-stretch:normal;font-size:3.17279px;font-family:'Gill Sans Ultra Bold';-inkscape-font-specification:'Gill Sans Ultra Bold, ';fill:#ffffff;fill-opacity:1"
         d="m 80.525382,52.957423 v -2.364101 h 1.045719 v 2.364101 z" />
      <path
         id="path912"
         style="font-style:normal;font-variant:normal;font-weight:normal;font-stretch:normal;font-size:3.17279px;font-family:'Gill Sans Ultra Bold';-inkscape-font-specification:'Gill Sans Ultra Bold, ';fill:#ffffff;fill-opacity:1"
         d="m 84.384474,52.976013 h -0.793198 l -0.508142,-0.745171 v 0.726581 h -1.045719 v -2.364101 h 0.74827 l 0.55152,0.799395 v -0.799395 h 1.047269 z" />
      <path
         id="path914"
         style="font-style:normal;font-variant:normal;font-weight:normal;font-stretch:normal;font-size:3.17279px;font-family:'Gill Sans Ultra Bold';-inkscape-font-specification:'Gill Sans Ultra Bold, ';fill:#ffffff;fill-opacity:1"
         d="m 87.233477,50.872181 -0.505043,0.711089 q -0.31604,-0.151823 -0.584054,-0.151823 -0.17816,0 -0.286605,0.09295 -0.106895,0.0914 -0.106895,0.243227 0,0.288153 0.378008,0.288153 v -0.370262 h 1.047268 v 1.275003 q -0.635177,0.03563 -0.859813,0.03563 -0.86756,0 -1.205289,-0.368713 -0.337728,-0.368713 -0.337728,-0.859813 0,-0.337729 0.15647,-0.619686 0.15802,-0.281957 0.45392,-0.436878 0.297449,-0.154922 0.703343,-0.154922 0.285055,0 0.59025,0.08366 0.305196,0.08211 0.556168,0.232382 z" />
      <path
         id="path916"
         style="font-style:normal;font-variant:normal;font-weight:normal;font-stretch:normal;font-size:3.17279px;font-family:'Gill Sans Ultra Bold';-inkscape-font-specification:'Gill Sans Ultra Bold, ';fill:#ffffff;fill-opacity:1"
         d="m 87.547969,52.957423 v -2.364101 h 1.047268 v 1.770752 h 0.917135 v 0.593349 z" />
      <path
         id="path918"
         style="font-style:normal;font-variant:normal;font-weight:normal;font-stretch:normal;font-size:3.17279px;font-family:'Gill Sans Ultra Bold';-inkscape-font-specification:'Gill Sans Ultra Bold, ';fill:#ffffff;fill-opacity:1"
         d="m 91.733944,52.364074 v 0.593349 H 89.77109 v -2.364101 h 1.962854 v 0.593349 h -0.917135 v 0.292802 h 0.638276 v 0.593349 h -0.638276 v 0.291252 z" />
      <path
         id="path920"
         style="font-style:normal;font-variant:normal;font-weight:normal;font-stretch:normal;font-size:3.17279px;font-family:'Gill Sans Ultra Bold';-inkscape-font-specification:'Gill Sans Ultra Bold, ';fill:#ffffff;fill-opacity:1"
         d="m 72.629039,55.6024 v -2.3641 h 1.016284 l 0.427583,0.49265 0.429132,-0.49265 h 1.014735 v 2.3641 h -1.047268 v -1.183599 l -0.396599,0.457018 -0.396599,-0.457018 V 55.6024 Z" />
      <path
         id="path922"
         style="font-style:normal;font-variant:normal;font-weight:normal;font-stretch:normal;font-size:3.17279px;font-family:'Gill Sans Ultra Bold';-inkscape-font-specification:'Gill Sans Ultra Bold, ';fill:#ffffff;fill-opacity:1"
         d="M 77.939744,55.009052 V 55.6024 H 75.97689 v -2.3641 h 1.962854 v 0.593349 h -0.917135 v 0.292801 h 0.638276 v 0.593349 h -0.638276 v 0.291253 z" />
      <path
         id="path924"
         style="font-style:normal;font-variant:normal;font-weight:normal;font-stretch:normal;font-size:3.17279px;font-family:'Gill Sans Ultra Bold';-inkscape-font-specification:'Gill Sans Ultra Bold, ';fill:#ffffff;fill-opacity:1"
         d="m 78.249587,55.6024 v -2.3641 h 1.016284 l 0.427583,0.49265 0.429132,-0.49265 h 1.014735 v 2.3641 h -1.047268 v -1.183599 l -0.396599,0.457018 -0.396599,-0.457018 V 55.6024 Z" />
      <path
         id="path926"
         style="font-style:normal;font-variant:normal;font-weight:normal;font-stretch:normal;font-size:3.17279px;font-family:'Gill Sans Ultra Bold';-inkscape-font-specification:'Gill Sans Ultra Bold, ';fill:#ffffff;fill-opacity:1"
         d="M 83.560292,55.009052 V 55.6024 h -1.962854 v -2.3641 h 1.962854 v 0.593349 h -0.917135 v 0.292801 h 0.638276 v 0.593349 h -0.638276 v 0.291253 z" />
      <path
         id="path928"
         style="font-style:normal;font-variant:normal;font-weight:normal;font-stretch:normal;font-size:3.17279px;font-family:'Gill Sans Ultra Bold';-inkscape-font-specification:'Gill Sans Ultra Bold, ';fill:#ffffff;fill-opacity:1"
         d="m 85.860875,53.359139 -0.260268,0.745172 q -0.25562,-0.345475 -0.587152,-0.345475 -0.184357,0 -0.184357,0.139429 0,0.04338 0.05732,0.0883 0.05887,0.04493 0.305195,0.140979 0.271113,0.106896 0.416739,0.195201 0.147175,0.08676 0.219988,0.223087 0.07281,0.13633 0.07281,0.317588 0,0.379558 -0.288153,0.579406 -0.288154,0.1983 -0.84742,0.1983 -0.627432,0 -1.081352,-0.17816 l 0.255621,-0.790099 q 0.111543,0.173512 0.27576,0.27576 0.165766,0.102248 0.317589,0.102248 0.07436,0 0.123937,-0.03873 0.05112,-0.03873 0.05112,-0.0945 0,-0.05267 -0.04957,-0.100699 -0.04803,-0.04803 -0.25717,-0.133232 -0.189004,-0.07591 -0.312941,-0.147176 -0.123937,-0.07281 -0.215341,-0.206045 -0.0914,-0.133233 -0.0914,-0.33618 0,-0.3935 0.286604,-0.593349 0.286605,-0.199848 0.845871,-0.199848 0.511241,0 0.94657,0.15802 z" />
    </g>
  </g>
</svg>
