<?xml version="1.0" encoding="UTF-8" standalone="no"?>
<svg
   xmlns:dc="http://purl.org/dc/elements/1.1/"
   xmlns:cc="http://creativecommons.org/ns#"
   xmlns:rdf="http://www.w3.org/1999/02/22-rdf-syntax-ns#"
   xmlns:svg="http://www.w3.org/2000/svg"
   xmlns="http://www.w3.org/2000/svg"
   xmlns:sodipodi="http://sodipodi.sourceforge.net/DTD/sodipodi-0.dtd"
   xmlns:inkscape="http://www.inkscape.org/namespaces/inkscape"
   width="137.54832mm"
   height="71.664871mm"
   viewBox="0 0 137.54833 71.664871"
   version="1.1"
   id="svg3388"
   inkscape:version="1.0 (4035a4fb49, 2020-05-01)"
   sodipodi:docname="ViewMemes.svg">
  <defs
     id="defs3382">
    <rect
       x="30.85561"
       y="50.66975"
       width="96.650658"
       height="22.385443"
       id="rect891-7" />
    <rect
       x="30.85561"
       y="50.66975"
       width="96.650658"
       height="22.385443"
       id="rect3960" />
    <rect
       id="rect971"
       height="22.385443"
       width="96.650658"
       y="50.66975"
       x="30.85561" />
    <rect
       id="rect4011"
       height="22.385443"
       width="96.650658"
       y="50.66975"
       x="30.85561" />
    <rect
       x="30.85561"
       y="50.66975"
       width="96.650658"
       height="22.385443"
       id="rect963" />
    <rect
       x="30.85561"
       y="50.66975"
       width="96.650658"
       height="22.385443"
       id="rect4014" />
    <rect
       x="83.642906"
       y="35.695705"
       width="58.686169"
       height="8.7726707"
       id="rect983" />
    <rect
       x="83.642906"
       y="35.695705"
       width="58.686169"
       height="8.7726707"
       id="rect4017" />
  </defs>
  <sodipodi:namedview
     id="base"
     pagecolor="#ffffff"
     bordercolor="#666666"
     borderopacity="1.0"
     inkscape:pageopacity="0.0"
     inkscape:pageshadow="2"
     inkscape:zoom="0.7"
     inkscape:cx="160.67126"
     inkscape:cy="332.57906"
     inkscape:document-units="mm"
     inkscape:current-layer="layer1"
     inkscape:document-rotation="0"
     showgrid="false"
     fit-margin-top="0"
     fit-margin-left="0"
     fit-margin-right="0"
     fit-margin-bottom="0"
     inkscape:window-width="1481"
     inkscape:window-height="1039"
     inkscape:window-x="1165"
     inkscape:window-y="277"
     inkscape:window-maximized="0" />
  <metadata
     id="metadata3385">
    <rdf:RDF>
      <cc:Work
         rdf:about="">
        <dc:format>image/svg+xml</dc:format>
        <dc:type
           rdf:resource="http://purl.org/dc/dcmitype/StillImage" />
        <dc:title></dc:title>
      </cc:Work>
    </rdf:RDF>
  </metadata>
  <g
     inkscape:label="Ebene 1"
     inkscape:groupmode="layer"
     id="layer1"
     transform="translate(-138.6536,-88.276476)">
    <path
       sodipodi:nodetypes="cscscscscscscscsc"
       id="path975"
       d="m 225.39935,111.79103 c 4.72073,1.77749 21.6802,11.3312 16.6445,2.66829 -5.03568,-8.6629 -8.47232,-14.18219 -8.47232,-14.18219 0,0 8.86507,10.26112 11.0868,11.86408 5.12622,3.69852 -0.0829,-15.641024 -0.0829,-15.641024 0,0 5.17569,19.544564 10.5989,15.934754 5.42324,-3.60984 14.16413,-10.51321 14.16413,-10.51321 0,0 -16.73805,14.42102 -11.19568,16.87315 5.54238,2.45213 18.05914,-0.52452 18.05914,-0.52452 0,0 -18.15099,3.35829 -18.02479,6.38398 0.10262,2.4609 7.63939,16.67676 7.63939,16.67676 0,0 -8.61248,-12.82293 -11.07294,-12.15739 -4.54564,1.2296 -8.76077,16.44058 -8.76077,16.44058 0,0 2.29322,-17.12031 -0.0353,-18.25062 -2.5098,-1.21831 -19.34211,6.18157 -19.34211,6.18157 0,0 15.05844,-7.56456 14.72454,-11.02142 -0.31621,-3.27377 -15.93059,-10.73279 -15.93059,-10.73279 z"
       style="fill:#003ce5;fill-opacity:1;stroke:none;stroke-width:0.526965px;stroke-linecap:butt;stroke-linejoin:miter;stroke-opacity:1" />
    <path
       style="fill:#00e5c4;fill-opacity:1;stroke:none;stroke-width:0.526965px;stroke-linecap:butt;stroke-linejoin:miter;stroke-opacity:1"
       d="m 222.5037,110.94056 c 4.72072,1.77749 21.6802,11.3312 16.6445,2.66829 -5.03568,-8.6629 -8.47233,-14.182184 -8.47233,-14.182184 0,0 8.86508,10.261124 11.08681,11.864084 5.12622,3.69851 -0.0828,-15.641024 -0.0828,-15.641024 0,0 5.17568,19.544564 10.59889,15.934754 5.42325,-3.60984 14.16413,-10.51321 14.16413,-10.51321 0,0 -16.73805,14.42102 -11.19568,16.87314 5.54238,2.45213 18.05914,-0.52452 18.05914,-0.52452 0,0 -18.15099,3.3583 -18.02478,6.38398 0.10261,2.4609 7.63937,16.67676 7.63937,16.67676 0,0 -8.61246,-12.82292 -11.07293,-12.15739 -4.54564,1.22961 -8.76077,16.44059 -8.76077,16.44059 0,0 2.29323,-17.12031 -0.0353,-18.25062 -2.50981,-1.21831 -19.34212,6.18157 -19.34212,6.18157 0,0 15.05844,-7.56457 14.72454,-11.02143 -0.3162,-3.27376 -15.93059,-10.73279 -15.93059,-10.73279 z"
       id="path977"
       sodipodi:nodetypes="cscscscscscscscsc" />
    <path
       id="path973"
       d="m 193.70969,144.45016 c 0,0 33.27565,4.34332 40.8383,-5.50155 7.56266,-9.84487 6.50389,-12.74042 6.50389,-12.74042 l -3.17632,-1.15822 c 0,0 8.16766,-6.80454 8.31891,-4.77766 0.15127,2.02689 3.32758,6.51499 3.32758,6.51499 l -3.78133,0.28955 c 0,0 -3.93258,19.9793 -18.45287,24.46741 -14.52029,4.4881 -32.51939,8.39709 -32.51939,8.39709 l -55.68818,-1.12924 -0.42668,-70.535634 c 0,0 37.96451,1.15822 37.81325,1.88211 -0.15125,0.72388 10.73896,26.639064 9.9827,36.918264 -0.75627,10.27921 7.26014,17.37331 7.26014,17.37331 z"
       style="fill:#172548;fill-opacity:1;stroke:none;stroke-width:0.258857px;stroke-linecap:butt;stroke-linejoin:miter;stroke-opacity:1" />
    <g
       style="font-size:6.35px;line-height:0.8;font-family:sans-serif;-inkscape-font-specification:'sans-serif, Normal';text-align:center;letter-spacing:0px;word-spacing:0px;writing-mode:lr-tb;white-space:pre;shape-inside:url(#rect971);fill:#003ce5;fill-opacity:1"
       id="text969"
       transform="matrix(1.2122551,-0.21570004,0.1121159,0.99987846,81.21603,72.631919)"
       aria-label="VIEW ALL
    MEMES
">
      <path
         id="path863"
         style="font-style:normal;font-variant:normal;font-weight:normal;font-stretch:normal;font-size:11.2889px;font-family:'Gill Sans Ultra Bold';-inkscape-font-specification:'Gill Sans Ultra Bold, ';fill:#003ce5;fill-opacity:1"
         d="m 55.224824,50.397378 -2.855298,8.411554 h -3.610464 l -2.86081,-8.411554 h 3.715194 l 0.948092,2.83325 0.948091,-2.83325 z" />
      <path
         id="path865"
         style="font-style:normal;font-variant:normal;font-weight:normal;font-stretch:normal;font-size:11.2889px;font-family:'Gill Sans Ultra Bold';-inkscape-font-specification:'Gill Sans Ultra Bold, ';fill:#003ce5;fill-opacity:1"
         d="m 56.172915,58.808932 v -8.411554 h 3.720707 v 8.411554 z" />
      <path
         id="path867"
         style="font-style:normal;font-variant:normal;font-weight:normal;font-stretch:normal;font-size:11.2889px;font-family:'Gill Sans Ultra Bold';-inkscape-font-specification:'Gill Sans Ultra Bold, ';fill:#003ce5;fill-opacity:1"
         d="m 68.536687,56.697775 v 2.111157 h -6.983905 v -8.411554 h 6.983905 v 2.111157 h -3.263198 v 1.041798 h 2.271009 v 2.111157 h -2.271009 v 1.036285 z" />
      <path
         id="path869"
         style="font-style:normal;font-variant:normal;font-weight:normal;font-stretch:normal;font-size:11.2889px;font-family:'Gill Sans Ultra Bold';-inkscape-font-specification:'Gill Sans Ultra Bold, ';fill:#003ce5;fill-opacity:1"
         d="m 74.550452,58.808932 h -2.739543 l -2.971053,-8.411554 h 3.632512 l 0.975652,2.745055 1.025262,-2.745055 h 2.585202 l 1.074871,2.745055 0.92053,-2.745055 h 3.638025 l -2.83325,8.411554 h -2.745054 l -1.328431,-3.329344 z" />
      <path
         id="path871"
         style="font-style:normal;font-variant:normal;font-weight:normal;font-stretch:normal;font-size:11.2889px;font-family:'Gill Sans Ultra Bold';-inkscape-font-specification:'Gill Sans Ultra Bold, ';fill:#003ce5;fill-opacity:1"
         d="m 89.323038,58.808932 h -3.726219 l 2.921444,-8.411554 h 5.308209 l 2.921444,8.411554 h -3.720707 l -0.48507,-1.422137 h -2.734031 z m 1.163066,-3.406514 h 1.37804 l -0.68902,-2.089108 z" />
      <path
         id="path873"
         style="font-style:normal;font-variant:normal;font-weight:normal;font-stretch:normal;font-size:11.2889px;font-family:'Gill Sans Ultra Bold';-inkscape-font-specification:'Gill Sans Ultra Bold, ';fill:#003ce5;fill-opacity:1"
         d="m 97.585761,58.808932 v -8.411554 h 3.726219 v 6.300397 h 3.2632 v 2.111157 z" />
      <path
         id="path875"
         style="font-style:normal;font-variant:normal;font-weight:normal;font-stretch:normal;font-size:11.2889px;font-family:'Gill Sans Ultra Bold';-inkscape-font-specification:'Gill Sans Ultra Bold, ';fill:#003ce5;fill-opacity:1"
         d="m 105.47917,58.808932 v -8.411554 h 3.72622 v 6.300397 h 3.2632 v 2.111157 z" />
      <path
         id="path877"
         style="font-style:normal;font-variant:normal;font-weight:normal;font-stretch:normal;font-size:11.2889px;font-family:'Gill Sans Ultra Bold';-inkscape-font-specification:'Gill Sans Ultra Bold, ';fill:#003ce5;fill-opacity:1"
         d="m 63.410379,67.840052 v -8.411553 h 3.615976 l 1.521356,1.752866 1.526868,-1.752866 h 3.610463 v 8.411553 h -3.726219 v -4.211289 l -1.411112,1.626087 -1.411113,-1.626087 v 4.211289 z" />
      <path
         id="path879"
         style="font-style:normal;font-variant:normal;font-weight:normal;font-stretch:normal;font-size:11.2889px;font-family:'Gill Sans Ultra Bold';-inkscape-font-specification:'Gill Sans Ultra Bold, ';fill:#003ce5;fill-opacity:1"
         d="m 82.306058,65.728896 v 2.111156 h -6.983905 v -8.411553 h 6.983905 v 2.111156 H 79.04286 v 1.041798 h 2.271009 V 64.69261 H 79.04286 v 1.036286 z" />
      <path
         id="path881"
         style="font-style:normal;font-variant:normal;font-weight:normal;font-stretch:normal;font-size:11.2889px;font-family:'Gill Sans Ultra Bold';-inkscape-font-specification:'Gill Sans Ultra Bold, ';fill:#003ce5;fill-opacity:1"
         d="m 83.40849,67.840052 v -8.411553 h 3.615976 l 1.521355,1.752866 1.526868,-1.752866 h 3.610464 v 8.411553 h -3.726219 v -4.211289 l -1.411113,1.626087 -1.411112,-1.626087 v 4.211289 z" />
      <path
         id="path883"
         style="font-style:normal;font-variant:normal;font-weight:normal;font-stretch:normal;font-size:11.2889px;font-family:'Gill Sans Ultra Bold';-inkscape-font-specification:'Gill Sans Ultra Bold, ';fill:#003ce5;fill-opacity:1"
         d="m 102.30417,65.728896 v 2.111156 h -6.983907 v -8.411553 h 6.983907 v 2.111156 h -3.2632 v 1.041798 h 2.27101 v 2.111157 h -2.27101 v 1.036286 z" />
      <path
         id="path885"
         style="font-style:normal;font-variant:normal;font-weight:normal;font-stretch:normal;font-size:11.2889px;font-family:'Gill Sans Ultra Bold';-inkscape-font-specification:'Gill Sans Ultra Bold, ';fill:#003ce5;fill-opacity:1"
         d="m 110.48973,59.858447 -0.92605,2.651348 q -0.9095,-1.229211 -2.08911,-1.229211 -0.65594,0 -0.65594,0.496094 0,0.154341 0.20395,0.314193 0.20946,0.159853 1.08589,0.501607 0.96463,0.380339 1.48277,0.694532 0.52366,0.30868 0.78273,0.79375 0.25907,0.48507 0.25907,1.129993 0,1.350479 -1.02526,2.061547 -1.02526,0.705556 -3.01515,0.705556 -2.23243,0 -3.84749,-0.633898 l 0.90951,-2.811201 q 0.39687,0.617362 0.98116,0.981165 0.5898,0.363802 1.13,0.363802 0.26458,0 0.44097,-0.137804 0.1819,-0.137804 0.1819,-0.336242 0,-0.187413 -0.17639,-0.35829 -0.17088,-0.170877 -0.91502,-0.474046 -0.67248,-0.270095 -1.11345,-0.523655 -0.44098,-0.259071 -0.76619,-0.733117 -0.32522,-0.474045 -0.32522,-1.196138 0,-1.400088 1.01975,-2.111157 1.01975,-0.711068 3.00964,-0.711068 1.81901,0 3.36793,0.56224 z" />
    </g>
    <g
       style="font-size:6.35px;line-height:0.8;font-family:sans-serif;-inkscape-font-specification:'sans-serif, Normal';text-align:center;letter-spacing:0px;word-spacing:0px;writing-mode:lr-tb;white-space:pre;shape-inside:url(#rect963);fill:#00e5c4;fill-opacity:1"
       id="text961"
       transform="matrix(1.2122551,-0.21570004,0.1121159,0.99987846,80.006011,71.875634)"
       aria-label="VIEW ALL
    MEMES
">
      <path
         id="path888"
         style="font-style:normal;font-variant:normal;font-weight:normal;font-stretch:normal;font-size:11.2889px;font-family:'Gill Sans Ultra Bold';-inkscape-font-specification:'Gill Sans Ultra Bold, ';fill:#00e5c4;fill-opacity:1"
         d="m 55.224824,50.397378 -2.855298,8.411554 h -3.610464 l -2.86081,-8.411554 h 3.715194 l 0.948092,2.83325 0.948091,-2.83325 z" />
      <path
         id="path890"
         style="font-style:normal;font-variant:normal;font-weight:normal;font-stretch:normal;font-size:11.2889px;font-family:'Gill Sans Ultra Bold';-inkscape-font-specification:'Gill Sans Ultra Bold, ';fill:#00e5c4;fill-opacity:1"
         d="m 56.172915,58.808932 v -8.411554 h 3.720707 v 8.411554 z" />
      <path
         id="path892"
         style="font-style:normal;font-variant:normal;font-weight:normal;font-stretch:normal;font-size:11.2889px;font-family:'Gill Sans Ultra Bold';-inkscape-font-specification:'Gill Sans Ultra Bold, ';fill:#00e5c4;fill-opacity:1"
         d="m 68.536687,56.697775 v 2.111157 h -6.983905 v -8.411554 h 6.983905 v 2.111157 h -3.263198 v 1.041798 h 2.271009 v 2.111157 h -2.271009 v 1.036285 z" />
      <path
         id="path894"
         style="font-style:normal;font-variant:normal;font-weight:normal;font-stretch:normal;font-size:11.2889px;font-family:'Gill Sans Ultra Bold';-inkscape-font-specification:'Gill Sans Ultra Bold, ';fill:#00e5c4;fill-opacity:1"
         d="m 74.550452,58.808932 h -2.739543 l -2.971053,-8.411554 h 3.632512 l 0.975652,2.745055 1.025262,-2.745055 h 2.585202 l 1.074871,2.745055 0.92053,-2.745055 h 3.638025 l -2.83325,8.411554 h -2.745054 l -1.328431,-3.329344 z" />
      <path
         id="path896"
         style="font-style:normal;font-variant:normal;font-weight:normal;font-stretch:normal;font-size:11.2889px;font-family:'Gill Sans Ultra Bold';-inkscape-font-specification:'Gill Sans Ultra Bold, ';fill:#00e5c4;fill-opacity:1"
         d="m 89.323038,58.808932 h -3.726219 l 2.921444,-8.411554 h 5.308209 l 2.921444,8.411554 h -3.720707 l -0.48507,-1.422137 h -2.734031 z m 1.163066,-3.406514 h 1.37804 l -0.68902,-2.089108 z" />
      <path
         id="path898"
         style="font-style:normal;font-variant:normal;font-weight:normal;font-stretch:normal;font-size:11.2889px;font-family:'Gill Sans Ultra Bold';-inkscape-font-specification:'Gill Sans Ultra Bold, ';fill:#00e5c4;fill-opacity:1"
         d="m 97.585761,58.808932 v -8.411554 h 3.726219 v 6.300397 h 3.2632 v 2.111157 z" />
      <path
         id="path900"
         style="font-style:normal;font-variant:normal;font-weight:normal;font-stretch:normal;font-size:11.2889px;font-family:'Gill Sans Ultra Bold';-inkscape-font-specification:'Gill Sans Ultra Bold, ';fill:#00e5c4;fill-opacity:1"
         d="m 105.47917,58.808932 v -8.411554 h 3.72622 v 6.300397 h 3.2632 v 2.111157 z" />
      <path
         id="path902"
         style="font-style:normal;font-variant:normal;font-weight:normal;font-stretch:normal;font-size:11.2889px;font-family:'Gill Sans Ultra Bold';-inkscape-font-specification:'Gill Sans Ultra Bold, ';fill:#00e5c4;fill-opacity:1"
         d="m 63.410379,67.840052 v -8.411553 h 3.615976 l 1.521356,1.752866 1.526868,-1.752866 h 3.610463 v 8.411553 h -3.726219 v -4.211289 l -1.411112,1.626087 -1.411113,-1.626087 v 4.211289 z" />
      <path
         id="path904"
         style="font-style:normal;font-variant:normal;font-weight:normal;font-stretch:normal;font-size:11.2889px;font-family:'Gill Sans Ultra Bold';-inkscape-font-specification:'Gill Sans Ultra Bold, ';fill:#00e5c4;fill-opacity:1"
         d="m 82.306058,65.728896 v 2.111156 h -6.983905 v -8.411553 h 6.983905 v 2.111156 H 79.04286 v 1.041798 h 2.271009 V 64.69261 H 79.04286 v 1.036286 z" />
      <path
         id="path906"
         style="font-style:normal;font-variant:normal;font-weight:normal;font-stretch:normal;font-size:11.2889px;font-family:'Gill Sans Ultra Bold';-inkscape-font-specification:'Gill Sans Ultra Bold, ';fill:#00e5c4;fill-opacity:1"
         d="m 83.40849,67.840052 v -8.411553 h 3.615976 l 1.521355,1.752866 1.526868,-1.752866 h 3.610464 v 8.411553 h -3.726219 v -4.211289 l -1.411113,1.626087 -1.411112,-1.626087 v 4.211289 z" />
      <path
         id="path908"
         style="font-style:normal;font-variant:normal;font-weight:normal;font-stretch:normal;font-size:11.2889px;font-family:'Gill Sans Ultra Bold';-inkscape-font-specification:'Gill Sans Ultra Bold, ';fill:#00e5c4;fill-opacity:1"
         d="m 102.30417,65.728896 v 2.111156 h -6.983907 v -8.411553 h 6.983907 v 2.111156 h -3.2632 v 1.041798 h 2.27101 v 2.111157 h -2.27101 v 1.036286 z" />
      <path
         id="path910"
         style="font-style:normal;font-variant:normal;font-weight:normal;font-stretch:normal;font-size:11.2889px;font-family:'Gill Sans Ultra Bold';-inkscape-font-specification:'Gill Sans Ultra Bold, ';fill:#00e5c4;fill-opacity:1"
         d="m 110.48973,59.858447 -0.92605,2.651348 q -0.9095,-1.229211 -2.08911,-1.229211 -0.65594,0 -0.65594,0.496094 0,0.154341 0.20395,0.314193 0.20946,0.159853 1.08589,0.501607 0.96463,0.380339 1.48277,0.694532 0.52366,0.30868 0.78273,0.79375 0.25907,0.48507 0.25907,1.129993 0,1.350479 -1.02526,2.061547 -1.02526,0.705556 -3.01515,0.705556 -2.23243,0 -3.84749,-0.633898 l 0.90951,-2.811201 q 0.39687,0.617362 0.98116,0.981165 0.5898,0.363802 1.13,0.363802 0.26458,0 0.44097,-0.137804 0.1819,-0.137804 0.1819,-0.336242 0,-0.187413 -0.17639,-0.35829 -0.17088,-0.170877 -0.91502,-0.474046 -0.67248,-0.270095 -1.11345,-0.523655 -0.44098,-0.259071 -0.76619,-0.733117 -0.32522,-0.474045 -0.32522,-1.196138 0,-1.400088 1.01975,-2.111157 1.01975,-0.711068 3.00964,-0.711068 1.81901,0 3.36793,0.56224 z" />
    </g>
  </g>
</svg>
